<?xml version="1.0" standalone="no"?>
<!DOCTYPE svg PUBLIC "-//W3C//DTD SVG 20010904//EN"
 "http://www.w3.org/TR/2001/REC-SVG-20010904/DTD/svg10.dtd">
<svg version="1.0" xmlns="http://www.w3.org/2000/svg"
 width="546.000000pt" height="317.000000pt" viewBox="0 0 546.000000 317.000000"
 preserveAspectRatio="xMidYMid meet">

<g transform="translate(0.000000,317.000000) scale(0.100000,-0.100000)"
fill="#000000" stroke="none">
<path d="M0 2836 l0 -334 192 49 c105 28 196 52 202 55 6 3 2 -2 -8 -10 -17
-14 -18 -16 -3 -16 21 0 149 -51 143 -57 -2 -2 -28 6 -58 19 -71 31 -123 28
-312 -17 l-156 -37 0 -52 0 -52 88 0 c73 -1 98 -5 143 -26 125 -58 201 -170
207 -304 4 -67 2 -76 -34 -144 -44 -82 -82 -116 -181 -162 -60 -28 -77 -32
-146 -31 l-77 1 0 -736 c0 -723 0 -736 19 -707 10 17 30 41 45 54 l26 24 -1
-34 c0 -22 -3 -28 -7 -17 -5 11 -12 14 -20 9 -11 -7 -10 -11 2 -24 9 -8 15
-28 15 -44 l-1 -28 -7 29 -6 29 -32 -31 -33 -30 0 -106 0 -105 159 0 160 0 12
37 c20 63 92 138 167 174 58 28 78 32 147 32 79 1 205 -27 205 -46 0 -4 5 -8
12 -8 23 0 77 -50 75 -70 -1 -18 -17 -30 -17 -12 0 11 -43 56 -70 73 -136 83
-371 49 -431 -63 -11 -21 -1 -50 15 -41 22 14 34 11 40 -10 3 -12 3 -23 1 -26
-3 -2 -5 1 -5 7 0 7 -11 2 -25 -10 -14 -12 -25 -25 -25 -30 0 -13 28 -9 34 4
5 10 7 10 12 1 4 -9 33 -13 95 -13 58 0 88 4 84 10 -3 6 -1 10 4 10 6 0 11 -4
11 -10 0 -5 18 -10 40 -10 33 0 38 3 33 17 -7 17 -6 17 20 0 31 -20 58 -22 75
-5 9 9 12 9 12 0 0 -8 22 -12 70 -12 39 0 70 2 70 5 0 4 -7 20 -17 38 -9 18
-17 43 -19 57 l-3 25 20 -24 c10 -12 16 -27 13 -32 -3 -5 -1 -9 5 -9 6 0 7 -7
4 -17 -4 -10 -2 -14 5 -9 6 3 13 -3 17 -14 6 -20 10 -20 2231 -20 l2225 0 -3
43 c-2 25 -8 42 -15 42 -7 0 -19 10 -28 21 -12 18 -22 21 -62 17 -27 -2 -59
-10 -72 -16 -19 -9 -25 -9 -28 1 -3 6 -14 12 -26 12 -12 0 -34 6 -49 14 -15 8
-41 17 -58 21 -17 4 -36 15 -43 26 -13 22 -39 26 -31 5 4 -10 -15 -7 -70 11
-64 22 -76 29 -81 52 -4 17 -19 32 -42 44 -35 18 -36 17 -55 -3 -15 -16 -23
-18 -38 -10 -10 5 -30 10 -43 10 -16 0 -26 7 -30 20 -3 11 -11 20 -17 20 -10
0 -10 -3 0 -15 28 -33 -86 18 -220 100 -79 48 -245 216 -245 248 0 8 -7 22
-15 31 -12 15 -12 19 0 26 12 7 12 10 -2 15 -10 4 -21 4 -26 1 -13 -8 -65 92
-56 106 4 6 3 8 -4 4 -6 -3 -13 -2 -17 4 -3 5 1 10 9 10 9 0 16 5 16 10 0 6
-8 10 -19 10 -24 0 -33 11 -70 87 -37 73 -37 76 -10 68 19 -6 20 -4 14 37 -4
23 -14 54 -23 68 -9 14 -15 30 -14 35 2 6 -2 4 -9 -2 -35 -35 -64 5 -49 67 4
16 -1 36 -12 55 -10 17 -18 43 -18 58 0 18 -4 26 -11 21 -8 -5 -9 8 -4 44 4
32 3 52 -4 57 -15 9 -14 62 2 69 9 3 8 8 -3 18 -18 16 -22 60 -6 71 8 5 8 9 0
15 -6 4 -14 17 -18 29 -10 33 -9 142 2 156 5 7 12 34 15 60 2 26 11 56 19 65
9 11 14 34 13 65 -2 26 1 50 6 52 4 3 11 27 14 53 12 84 63 136 95 97 7 -8 26
-15 42 -15 22 0 31 -6 35 -20 4 -14 9 -17 17 -11 6 6 16 7 22 3 17 -12 44 -60
44 -79 1 -25 22 -51 38 -45 11 3 11 0 0 -19 -7 -13 -15 -26 -18 -29 -8 -7 -6
-90 1 -90 4 0 9 9 12 21 4 14 10 18 18 13 10 -6 10 -9 1 -12 -7 -2 -12 -10
-12 -18 0 -12 4 -12 21 -3 13 6 19 7 15 1 -3 -6 -1 -12 5 -14 6 -2 0 -9 -15
-16 -22 -10 -26 -9 -26 3 0 8 -4 15 -10 15 -13 0 -13 -27 -1 -35 6 -3 9 -14 8
-25 -1 -15 -6 -18 -20 -14 -14 5 -18 2 -15 -13 2 -12 12 -18 31 -18 20 -1 42
-14 72 -45 24 -25 44 -49 45 -55 0 -5 11 -22 24 -36 24 -28 67 -41 88 -28 10
7 9 9 -4 9 -21 0 -23 11 -5 29 10 10 9 11 -6 5 -13 -5 -16 -2 -11 10 7 17 44
22 44 6 0 -5 5 -10 11 -10 5 0 7 5 4 10 -4 6 5 10 20 10 15 0 35 5 46 10 29
16 44 2 23 -22 -15 -15 -16 -21 -5 -27 14 -9 10 -14 -34 -46 -19 -14 -17 -15
20 -13 22 1 43 6 47 12 4 6 15 6 32 -2 16 -7 26 -8 26 -2 0 6 7 10 16 10 10 0
14 5 10 15 -3 10 1 18 12 22 9 3 24 12 33 19 8 8 26 15 40 17 13 2 24 8 24 13
1 5 7 20 14 34 13 22 13 24 -1 13 -8 -7 -19 -9 -23 -5 -5 4 -5 -1 -2 -10 3 -9
0 -22 -8 -28 -16 -13 -115 -30 -115 -19 0 11 51 49 66 49 19 0 18 4 -14 38
-28 29 -29 30 -43 11 -17 -24 -29 -24 -29 0 0 12 -9 20 -24 23 -17 4 -23 1
-19 -9 3 -7 12 -13 21 -13 28 0 3 -13 -33 -17 -24 -2 -34 0 -30 7 3 6 11 8 16
5 5 -4 9 1 9 9 0 24 -15 19 -30 -9 -14 -26 -49 -34 -51 -12 -1 6 -2 19 -3 27
-1 10 -12 15 -34 16 -47 1 -48 9 -3 23 24 7 42 19 46 31 7 22 20 26 31 9 3 -6
18 -9 32 -6 17 3 31 -1 40 -11 13 -16 13 -16 8 1 -3 11 0 17 9 17 8 0 15 4 15
10 0 15 71 25 80 10 4 -7 13 -9 19 -6 13 9 78 -11 87 -26 4 -6 -1 -6 -14 1
-15 8 -22 7 -29 -2 -21 -27 -22 -35 -6 -48 12 -10 14 -10 9 -1 -4 6 -3 12 1
12 15 0 32 -22 27 -35 -3 -7 -1 -16 4 -19 12 -7 32 46 32 82 0 21 2 23 15 12
19 -16 26 -10 45 43 13 36 14 46 2 69 -7 15 -16 44 -19 64 -6 35 -5 36 18 29
13 -4 35 -14 47 -22 30 -19 115 -18 167 1 22 8 36 15 30 16 -5 0 8 9 29 21 21
11 50 32 65 45 14 14 36 30 49 35 12 5 25 17 29 26 3 10 15 28 25 39 13 14 16
24 9 29 -6 3 -11 11 -11 16 0 6 4 8 9 5 5 -3 11 1 15 9 3 9 0 15 -9 15 -17 0
-19 35 -6 92 7 29 4 48 -14 92 -13 31 -19 56 -14 56 6 0 13 -9 17 -21 7 -19 9
-18 27 14 17 32 17 36 2 51 -19 19 -48 21 -66 4 -10 -11 -16 -8 -29 10 -32 47
-133 101 -221 116 -24 4 -53 -2 -102 -21 -38 -15 -69 -30 -69 -35 0 -4 -7 -8
-16 -8 -15 0 -15 2 -1 23 11 17 12 28 5 42 -8 13 -7 24 1 37 6 10 7 18 2 18
-5 0 -13 -9 -16 -20 -3 -11 -11 -20 -17 -20 -6 0 -8 -3 -5 -7 4 -4 -6 -12 -23
-19 -25 -11 -29 -18 -26 -42 2 -19 -2 -29 -11 -29 -16 0 -17 9 -1 25 17 17
-20 16 -64 -3 -26 -10 -37 -22 -41 -44 -3 -16 -12 -29 -19 -28 -41 1 -68 -4
-63 -13 4 -6 -5 -10 -21 -10 -31 0 -94 -44 -94 -66 0 -7 -4 -14 -10 -14 -14 0
-13 33 2 48 15 15 7 23 -18 16 -37 -10 -71 -96 -41 -107 6 -2 -4 -11 -24 -19
-37 -16 -79 -64 -79 -90 0 -14 11 -18 58 -19 12 -1 22 -7 22 -15 0 -16 9 -18
29 -5 8 5 10 14 6 21 -5 9 -4 11 3 6 7 -4 12 -2 12 5 0 8 4 8 15 -1 9 -7 15
-8 15 -2 0 5 -6 12 -14 15 -9 4 -13 21 -12 50 1 54 7 63 24 37 10 -16 9 -18
-3 -14 -10 4 -15 0 -15 -11 0 -9 4 -14 9 -10 5 3 12 -3 14 -12 4 -17 5 -17 6
0 1 21 21 23 21 1 0 -10 6 -14 15 -10 9 3 15 0 15 -10 0 -8 5 -12 10 -9 6 3
10 1 10 -5 0 -6 12 -10 28 -8 29 3 39 34 10 32 -10 -1 -15 3 -11 9 4 6 0 8 -9
5 -8 -4 -20 -3 -27 1 -15 9 -4 41 15 41 7 0 17 8 23 18 7 13 23 17 68 18 36 0
57 5 56 11 -1 6 4 17 12 23 18 15 18 14 4 -30 -14 -48 -12 -135 6 -177 8 -20
15 -39 15 -43 0 -4 -25 -1 -56 6 -31 7 -85 13 -119 13 -51 0 -69 -5 -96 -25
-18 -13 -45 -24 -60 -24 -15 0 -34 -7 -43 -15 -8 -8 -19 -15 -24 -15 -6 0 -12
-7 -16 -15 -3 -8 -13 -15 -23 -15 -15 0 -16 2 -3 10 12 8 12 10 1 10 -11 0
-10 5 4 20 10 11 24 20 31 20 7 0 16 5 19 10 9 14 -30 7 -50 -10 -14 -11 -18
-12 -25 0 -7 11 -13 10 -34 -4 -14 -9 -26 -19 -26 -21 0 -3 11 2 25 11 28 18
33 11 10 -12 -15 -16 -60 -10 -50 6 6 10 -21 33 -32 27 -5 -3 -10 6 -11 20 -3
34 -10 43 -34 43 -16 0 -19 5 -14 23 3 12 6 34 6 49 0 29 137 196 265 323 115
116 413 325 461 325 13 0 24 4 24 8 0 8 63 42 77 42 4 0 -2 -7 -13 -15 -18
-14 -18 -14 5 -10 22 4 22 3 7 -14 -32 -35 -12 -111 31 -111 48 0 61 75 18
108 -42 33 -32 49 43 71 108 32 178 41 309 41 103 0 123 2 123 15 0 13 -310
15 -2730 15 l-2730 0 0 -334z m1666 247 c-3 -20 -16 -26 -35 -14 -17 11 -6 31
19 31 11 0 17 -6 16 -17z m-591 -63 c-41 -43 -102 -63 -172 -58 -58 4 -130 37
-102 47 7 2 15 -1 17 -8 2 -6 8 -8 14 -5 5 4 36 1 67 -6 49 -10 63 -10 87 3
16 8 34 13 39 11 6 -2 24 7 40 21 41 33 45 31 10 -5z m545 -24 c0 -3 -6 -6
-14 -6 -15 0 -28 24 -19 34 6 5 33 -18 33 -28z m-342 -64 c2 -7 -3 -12 -10
-12 -8 0 -15 7 -15 15 0 18 19 15 25 -3z m-48 -17 c0 -8 -7 -15 -15 -15 -8 0
-15 7 -15 15 0 8 7 15 15 15 8 0 15 -7 15 -15z m3755 -215 c-3 -5 -12 -10 -18
-10 -7 0 -6 4 3 10 19 12 23 12 15 0z m105 -31 c0 -4 6 -6 14 -3 15 6 71 -19
81 -37 8 -12 -26 -40 -39 -32 -5 4 -7 -4 -4 -15 5 -18 2 -22 -18 -22 -15 0
-24 6 -24 15 0 8 -7 15 -15 15 -9 0 -18 -7 -21 -15 -4 -8 -12 -15 -20 -15 -19
0 -18 7 6 32 11 12 20 28 20 35 0 7 7 13 15 13 13 0 14 -4 5 -20 -9 -17 -8
-20 12 -20 19 0 20 2 8 10 -13 9 -13 10 0 10 9 0 3 11 -17 29 -35 31 -42 44
-18 35 8 -4 15 -10 15 -15z m-4610 -3 c0 -2 -12 -11 -27 -20 l-28 -17 24 20
c23 21 31 25 31 17z m4717 -13 c0 -17 -12 -17 -27 1 -9 12 -8 15 8 13 10 0 19
-7 19 -14z m-2319 -16 c2 -11 -3 -17 -17 -17 -25 0 -38 19 -20 31 19 12 33 6
37 -14z m2187 1 c-9 -29 -33 -48 -51 -41 -12 4 -12 8 -2 21 11 13 11 14 -1 7
-10 -5 -12 -4 -7 3 4 7 18 12 32 12 14 0 22 4 19 10 -3 6 -1 10 5 10 7 0 9 -9
5 -22z m-92 -75 c-3 -7 -17 -20 -32 -28 -34 -19 -10 -19 34 -1 47 20 51 6 8
-29 -20 -16 -33 -23 -29 -17 5 8 0 12 -12 12 -11 0 -23 7 -26 16 -9 22 -7 36
3 30 4 -3 6 6 3 21 -3 15 -1 23 5 20 5 -3 15 -2 23 3 17 10 31 -6 23 -27z
m-87 -10 c-2 -9 -12 -18 -24 -20 -29 -4 -28 9 1 23 12 7 23 12 24 13 1 0 0 -6
-1 -16z m-279 1 c-3 -3 -12 -4 -19 -1 -8 3 -5 6 6 6 11 1 17 -2 13 -5z m653
-4 c0 -5 -5 -10 -11 -10 -5 0 -7 5 -4 10 3 6 8 10 11 10 2 0 4 -4 4 -10z
m-2003 -16 c-3 -3 -12 -4 -19 -1 -8 3 -5 6 6 6 11 1 17 -2 13 -5z m1572 -54
c-7 -5 -18 -6 -24 -4 -5 3 0 -3 11 -13 21 -19 21 -20 3 -31 -25 -16 -25 -35 1
-27 11 3 20 2 20 -3 0 -6 -5 -12 -11 -14 -6 -2 0 -12 13 -23 17 -15 19 -16 9
-2 -12 15 -11 17 3 17 9 0 16 5 16 10 0 6 -4 10 -10 10 -5 0 -8 13 -7 30 2 26
6 30 30 30 15 0 27 -5 27 -13 0 -7 9 -30 20 -52 11 -22 20 -40 20 -41 0 -1
-17 0 -37 2 -21 2 -32 1 -25 -2 20 -9 13 -27 -9 -21 -15 4 -18 2 -10 -7 8 -10
4 -11 -19 -8 -23 3 -32 12 -42 38 -7 19 -16 34 -20 34 -4 0 -8 9 -8 20 0 22
-16 27 -22 8 -3 -9 -6 -9 -12 0 -4 7 6 25 26 45 18 17 31 36 30 40 -1 4 7 3
19 -4 17 -9 19 -13 8 -19z m363 13 c-10 -4 -9 -10 6 -27 l20 -21 -24 -18 c-13
-10 -24 -13 -24 -8 0 7 -8 7 -25 1 -19 -7 -23 -6 -18 5 3 8 10 12 16 8 7 -4 8
0 4 11 -10 25 10 56 36 55 12 0 16 -3 9 -6z m-82 -7 c0 -2 -7 -6 -15 -10 -8
-3 -15 -1 -15 4 0 6 7 10 15 10 8 0 15 -2 15 -4z m-113 -12 c-3 -3 -12 -4 -19
-1 -8 3 -5 6 6 6 11 1 17 -2 13 -5z m279 -21 c-10 -10 -19 5 -10 18 6 11 8 11
12 0 2 -7 1 -15 -2 -18z m-206 5 c0 -4 -7 -8 -15 -8 -8 0 -15 4 -15 8 0 5 7 9
15 9 8 0 15 -4 15 -9z m-60 -23 c-7 -8 -17 -15 -23 -15 -6 0 -2 7 9 15 25 19
30 19 14 0z m300 -2 c0 -3 -6 -3 -12 0 -7 2 -22 0 -33 -5 -19 -9 -19 -8 -2 6
17 13 47 12 47 -1z m-347 -17 c4 -10 1 -13 -9 -9 -15 6 -19 23 -5 23 5 0 11
-7 14 -14z m-553 -16 c0 -5 -7 -10 -16 -10 -8 0 -13 -4 -10 -9 6 -9 -23 -25
-31 -17 -3 2 0 14 7 25 11 21 50 30 50 11z m689 -11 c12 -20 11 -21 -8 -16
-12 3 -19 1 -15 -4 3 -5 1 -9 -4 -9 -15 0 -22 26 -9 39 15 15 20 14 36 -10z
m-332 4 c-4 -3 -2 -12 5 -20 16 -20 6 -24 -17 -7 -17 13 -18 16 -5 24 17 11
26 13 17 3z m393 -17 c0 -3 -4 -8 -10 -11 -5 -3 -10 -1 -10 4 0 6 5 11 10 11
6 0 10 -2 10 -4z m79 -26 c-7 -19 -18 -30 -30 -30 -10 0 -19 -5 -19 -11 0 -5
-5 -7 -10 -4 -13 8 37 75 56 75 10 0 11 -6 3 -30z m-484 1 c3 -5 2 -12 -3 -15
-5 -3 -9 1 -9 9 0 17 3 19 12 6z m77 -46 c3 3 4 -5 4 -17 -1 -13 1 -30 5 -38
8 -18 -6 -60 -21 -60 -5 0 -10 7 -10 15 0 8 -5 15 -10 15 -6 0 -10 16 -8 35 1
23 6 34 14 31 7 -3 10 2 7 14 -3 10 -12 21 -20 24 -7 3 -12 2 -9 -3 3 -5 0
-11 -8 -14 -9 -4 -13 -15 -10 -29 3 -17 1 -16 -7 5 -10 25 -8 32 12 53 l23 25
16 -31 c9 -17 18 -28 22 -25z m-4202 35 c0 -5 -7 -10 -15 -10 -8 0 -15 5 -15
10 0 6 7 10 15 10 8 0 15 -4 15 -10z m4525 -20 c-10 -11 -21 -17 -24 -14 -3 3
3 12 13 20 28 20 32 17 11 -6z m125 5 c0 -8 -8 -15 -17 -16 -15 0 -14 -2 4
-11 17 -8 21 -18 19 -42 -5 -41 -16 -67 -27 -60 -5 3 -9 1 -9 -3 0 -12 -69
-47 -77 -40 -6 7 7 24 49 64 16 16 16 18 -2 30 -23 16 -27 53 -6 53 8 0 18 9
21 20 7 23 45 27 45 5z m-330 -11 c0 -8 -4 -12 -10 -9 -5 3 -10 10 -10 16 0 5
5 9 10 9 6 0 10 -7 10 -16z m77 -31 c2 -6 -10 -25 -26 -42 -29 -30 -46 -31
-18 -2 9 11 9 14 0 18 -10 3 -10 9 0 24 13 21 38 22 44 2z m133 -13 c0 -5 -2
-10 -4 -10 -3 0 -8 5 -11 10 -3 6 -1 10 4 10 6 0 11 -4 11 -10z m-55 -19 c-3
-6 -14 -10 -23 -10 -15 1 -15 2 1 6 9 2 17 9 17 15 0 6 3 9 6 5 3 -3 3 -10 -1
-16z m-213 -13 c-7 -7 -12 -8 -12 -2 0 14 12 26 19 19 2 -3 -1 -11 -7 -17z
m-2865 6 c-3 -3 -12 -4 -19 -1 -8 3 -5 6 6 6 11 1 17 -2 13 -5z m2513 -5 c0
-7 -9 -9 -22 -6 -12 4 -29 1 -37 -6 -14 -11 -14 -10 -2 6 15 19 61 24 61 6z
m194 -21 c11 -15 12 -24 5 -29 -6 -3 -2 -9 10 -12 21 -5 30 -37 11 -37 -5 0
-6 8 -3 17 4 11 -2 8 -18 -8 -13 -13 -23 -27 -21 -31 1 -5 -5 -8 -13 -8 -8 0
-15 5 -15 10 0 6 5 10 11 10 6 0 8 9 3 23 -9 30 -14 34 -23 18 -11 -17 -19
-16 -40 8 -20 23 -51 27 -67 11 -8 -8 -15 -6 -24 4 -16 20 4 29 51 24 18 -3
49 1 69 8 47 17 47 17 64 -8z m222 9 c4 -4 0 -7 -9 -7 -20 0 -23 -16 -4 -23 6
-2 9 -7 6 -11 -16 -17 -57 23 -44 43 5 9 42 8 51 -2z m104 3 c0 -5 -2 -10 -4
-10 -3 0 -8 5 -11 10 -3 6 -1 10 4 10 6 0 11 -4 11 -10z m-175 -20 c-3 -5 -11
-10 -16 -10 -6 0 -7 5 -4 10 3 6 11 10 16 10 6 0 7 -4 4 -10z m-620 -20 c3 -5
1 -10 -4 -10 -6 0 -11 5 -11 10 0 6 2 10 4 10 3 0 8 -4 11 -10z m276 -7 c13
-16 12 -17 -3 -4 -11 8 -28 11 -45 7 -21 -5 -24 -4 -13 4 23 15 46 12 61 -7z
m89 -19 c0 -18 -36 -18 -43 0 -7 19 0 25 24 19 10 -3 19 -12 19 -19z m391 17
c-21 -14 24 -54 55 -48 13 2 21 0 18 -4 -3 -5 1 -9 9 -9 8 0 17 7 21 15 3 8
13 15 21 15 9 0 13 -5 10 -10 -4 -7 3 -8 21 -4 19 5 25 4 20 -5 -4 -6 -20 -11
-35 -11 -17 0 -42 -12 -62 -30 -28 -25 -41 -30 -72 -27 -21 3 -41 8 -45 12 -4
4 0 5 8 3 16 -3 20 2 20 23 0 8 -4 8 -13 1 -15 -13 -60 -4 -51 9 3 5 0 9 -5 9
-6 0 -11 5 -11 10 0 6 8 10 17 10 9 0 14 3 10 6 -12 13 30 42 63 43 12 1 13
-1 1 -8z m-170 -18 c13 -16 12 -17 -3 -4 -17 13 -22 21 -14 21 2 0 10 -8 17
-17z m-595 -18 c12 -9 14 -14 6 -15 -7 0 -10 -5 -7 -10 4 -7 12 -7 25 0 24 13
30 13 30 -1 0 -5 -4 -7 -10 -4 -5 3 -10 -1 -10 -9 0 -10 -7 -13 -22 -11 -12 3
-27 0 -35 -6 -19 -17 -43 7 -43 42 0 24 4 29 23 29 13 0 32 -7 43 -15z m409
-75 c8 0 19 8 24 18 8 12 10 13 11 3 0 -8 3 -11 7 -8 3 4 12 2 20 -5 7 -6 17
-8 20 -4 4 4 1 11 -7 16 -8 6 -13 10 -10 11 3 0 13 2 23 4 15 3 18 -1 13 -18
-3 -12 -6 -28 -6 -34 0 -7 -7 -13 -15 -13 -8 0 -15 7 -15 15 0 16 -2 16 -76 0
-26 -6 -32 -3 -42 19 -10 22 -9 25 11 28 15 2 23 -3 25 -14 2 -10 10 -18 17
-18z m-296 16 c23 -13 23 -13 3 -18 -20 -5 -42 7 -42 24 0 11 11 9 39 -6z
m182 -7 c15 -15 24 -18 34 -9 21 17 24 -3 3 -22 -15 -16 -18 -16 -18 -2 0 8
-4 13 -9 9 -5 -3 -12 -1 -16 5 -3 5 -15 10 -26 10 -29 0 -24 19 9 29 1 1 11
-8 23 -20z m259 15 c0 -3 -7 -12 -15 -20 -16 -17 -18 -14 -9 10 6 15 24 23 24
10z m-430 -73 c0 -11 -40 -22 -53 -14 -5 3 -3 9 4 14 18 11 49 11 49 0z m480
-1 c0 -5 -8 -14 -17 -19 -17 -10 -17 -10 0 -11 9 0 17 5 17 10 0 6 7 10 15 10
9 0 15 -9 14 -22 0 -22 -1 -22 -10 -3 -7 16 -8 13 -4 -13 3 -19 0 -42 -5 -52
-8 -15 -14 -16 -35 -7 -14 7 -25 18 -25 25 0 7 4 11 9 7 21 -12 23 19 3 36
-21 17 -32 46 -13 34 5 -3 12 -1 16 5 8 13 35 13 35 0z m-294 -20 c34 -18 35
-20 12 -17 -16 2 -28 0 -28 -4 0 -5 -5 -9 -11 -9 -6 0 -9 7 -5 15 3 8 1 15 -4
15 -6 0 -10 5 -10 10 0 13 0 13 46 -10z m-3546 2 c0 -5 -7 -9 -15 -9 -8 0 -15
4 -15 9 0 4 7 8 15 8 8 0 15 -4 15 -8z m3463 1 c-7 -2 -13 -11 -13 -18 0 -8
-4 -16 -9 -19 -5 -4 -8 0 -7 6 3 21 16 38 29 37 9 0 9 -2 0 -6z m-110 -69 c8
-8 -11 -27 -43 -44 -23 -12 -24 -12 -12 3 8 9 11 20 8 26 -9 14 34 28 47 15z
m180 -9 c-3 -9 -8 -14 -10 -11 -3 3 -2 9 2 15 9 16 15 13 8 -4z m-138 -14 c-3
-6 -11 -8 -17 -5 -6 4 -5 9 3 15 16 10 23 4 14 -10z m28 -30 c-7 -27 -33 -36
-33 -11 0 10 8 21 18 23 9 3 18 5 19 6 0 0 -1 -8 -4 -18z m-145 -9 c2 -7 -1
-12 -8 -12 -6 0 -9 4 -6 9 4 5 1 12 -4 14 -6 3 -5 4 2 3 6 -1 14 -8 16 -14z
m98 -7 c0 -14 -4 -25 -8 -25 -4 0 -8 -7 -8 -16 0 -10 -6 -14 -15 -10 -8 3 -15
1 -15 -4 0 -16 21 -22 35 -10 12 10 15 9 15 -8 0 -11 6 -23 13 -26 6 -3 1 -3
-12 0 -18 5 -22 3 -17 -7 4 -8 0 -5 -9 6 -9 11 -21 20 -28 20 -7 1 -10 7 -8
15 2 8 5 26 5 40 1 16 10 29 26 37 14 7 25 12 26 13 0 0 0 -11 0 -25z m-134
-6 c2 -5 11 -11 20 -12 31 -5 49 -27 37 -49 -10 -19 -12 -18 -38 11 -15 17
-30 29 -32 26 -3 -2 -5 5 -5 15 0 21 12 27 18 9z m215 -59 c-1 -11 -7 -20 -14
-20 -15 0 -15 2 -7 24 9 23 23 20 21 -4z m-3694 3 c8 -7 -11 -33 -24 -33 -5 0
-9 9 -9 20 0 19 20 27 33 13z m3862 -63 c3 -6 -1 -7 -9 -4 -18 7 -21 14 -7 14
6 0 13 -4 16 -10z m-2057 -33 c2 -10 -3 -17 -12 -17 -9 0 -16 2 -16 4 0 2 -3
12 -6 21 -5 13 -2 16 12 13 10 -2 20 -11 22 -21z m-2048 -6 c0 -12 -50 -44
-58 -37 -3 3 0 6 7 6 7 0 10 4 6 9 -3 6 3 14 12 20 22 13 33 14 33 2z m200
-105 c0 -20 -19 -31 -32 -18 -6 6 -7 15 -4 21 10 16 36 13 36 -3z m173 -23
c25 -13 28 -18 15 -21 -10 -2 -18 -12 -18 -23 0 -10 -6 -19 -14 -19 -20 0 -31
21 -16 30 9 5 9 9 1 14 -11 7 -16 36 -6 36 4 0 20 -8 38 -17z m-513 -3 c0 -5
-2 -10 -4 -10 -3 0 -8 5 -11 10 -3 6 -1 10 4 10 6 0 11 -4 11 -10z m-90 -100
c0 -5 -4 -10 -9 -10 -6 0 -13 5 -16 10 -3 6 1 10 9 10 9 0 16 -4 16 -10z m172
-35 c0 -5 -5 -11 -11 -13 -6 -2 -11 4 -11 13 0 9 5 15 11 13 6 -2 11 -8 11
-13z m-97 -5 c3 -5 -1 -10 -9 -10 -9 0 -16 5 -16 10 0 6 4 10 9 10 6 0 13 -4
16 -10z m-176 -77 c-3 -20 2 -24 16 -13 12 10 15 10 15 -4 0 -9 -8 -16 -19
-16 -22 0 -35 15 -26 30 7 12 16 13 14 3z m201 -43 c0 -5 -2 -10 -4 -10 -3 0
-8 5 -11 10 -3 6 -1 10 4 10 6 0 11 -4 11 -10z m-290 -31 c0 -5 -7 -9 -15 -9
-15 0 -20 12 -9 23 8 8 24 -1 24 -14z m260 11 c0 -5 -4 -10 -10 -10 -5 0 -10
5 -10 10 0 6 5 10 10 10 6 0 10 -4 10 -10z m110 -10 c0 -5 -4 -10 -10 -10 -5
0 -10 5 -10 10 0 6 5 10 10 10 6 0 10 -4 10 -10z m-102 -98 c2 -7 -3 -12 -12
-12 -9 0 -16 7 -16 16 0 17 22 14 28 -4z m-58 -31 c0 -5 -8 -11 -17 -15 -10
-3 -24 -9 -30 -12 -8 -3 -13 1 -13 11 0 11 5 15 15 11 8 -3 15 -1 15 4 0 6 7
10 15 10 8 0 15 -4 15 -9z m1617 -37 c-3 -3 -12 -4 -19 -1 -8 3 -5 6 6 6 11 1
17 -2 13 -5z m2033 -26 c0 -5 -4 -8 -10 -8 -5 0 -10 10 -10 23 0 18 2 19 10 7
5 -8 10 -18 10 -22z m-1733 16 c-3 -3 -12 -4 -19 -1 -8 3 -5 6 6 6 11 1 17 -2
13 -5z m787 -22 c2 -4 -7 -8 -20 -8 -13 -1 -24 1 -24 5 0 9 38 12 44 3z
m-2474 -16 c0 -7 -9 -16 -20 -19 -23 -6 -26 3 -8 21 16 16 28 15 28 -2z m1238
-4 c2 -7 -3 -12 -12 -12 -9 0 -16 7 -16 16 0 17 22 14 28 -4z m-1285 -69 c-7
-2 -21 -2 -30 0 -10 3 -4 5 12 5 17 0 24 -2 18 -5z m5 -41 c6 -14 12 -43 12
-64 0 -27 4 -38 15 -38 8 0 15 -7 15 -15 0 -8 -5 -15 -11 -15 -5 0 -7 5 -4 10
4 7 -3 8 -22 4 -38 -9 -43 -13 -43 -30 0 -17 -12 -18 -28 -2 -9 9 -13 5 -18
-19 -4 -22 -11 -30 -21 -26 -7 3 -12 8 -9 10 2 3 -2 23 -10 45 -7 22 -11 45
-8 50 4 5 8 28 10 50 6 64 16 74 66 70 35 -3 46 -9 56 -30z m94 -117 c0 -5 -5
-11 -11 -13 -6 -2 -11 4 -11 13 0 9 5 15 11 13 6 -2 11 -8 11 -13z m-140 -77
c-6 -6 -16 -7 -22 -3 -9 6 -9 9 1 16 17 10 34 0 21 -13z m63 -8 c3 -5 -1 -10
-9 -10 -9 0 -16 5 -16 10 0 6 4 10 9 10 6 0 13 -4 16 -10z m-267 -7 c-10 -2
-26 -2 -35 0 -10 3 -2 5 17 5 19 0 27 -2 18 -5z m360 -20 c-10 -2 -26 -2 -35
0 -10 3 -2 5 17 5 19 0 27 -2 18 -5z m-94 -12 c4 -5 -3 -7 -14 -4 -23 6 -26
13 -6 13 8 0 17 -4 20 -9z m73 -7 c-3 -3 -12 -4 -19 -1 -8 3 -5 6 6 6 11 1 17
-2 13 -5z m141 -291 c2 -7 -4 -13 -13 -13 -9 0 -13 5 -9 11 4 8 -1 9 -16 4
-16 -5 -20 -4 -15 5 9 14 47 9 53 -7z m-38 -303 c0 -5 -8 -10 -17 -10 -15 0
-16 2 -3 10 19 12 20 12 20 0z m65 -39 c-3 -6 -11 -11 -17 -11 -6 0 -6 6 2 15
14 17 26 13 15 -4z m-208 -23 c-2 -7 -11 -12 -20 -10 -12 2 -15 -2 -11 -15 5
-15 4 -16 -5 -3 -8 11 -7 18 6 28 9 6 21 12 26 12 5 0 7 -6 4 -12z"/>
<path d="M4710 2199 c0 -5 5 -7 10 -4 6 3 10 8 10 11 0 2 -4 4 -10 4 -5 0 -10
-5 -10 -11z"/>
<path d="M5048 2113 c6 -2 18 -2 25 0 6 3 1 5 -13 5 -14 0 -19 -2 -12 -5z"/>
<path d="M5341 3123 c-41 -5 -65 -27 -58 -53 3 -10 0 -21 -6 -23 -6 -2 -8 -10
-4 -19 7 -20 72 -42 95 -32 9 4 22 8 27 9 6 0 9 7 7 14 -2 8 5 22 14 32 11 12
14 27 9 48 -7 33 -8 33 -84 24z"/>
<path d="M5150 3035 c-7 -8 -10 -21 -7 -29 8 -20 47 -8 47 14 0 24 -25 33 -40
15z"/>
<path d="M5431 3004 c0 -11 3 -14 6 -6 3 7 2 16 -1 19 -3 4 -6 -2 -5 -13z"/>
<path d="M4800 2980 c-54 -17 -95 -39 -75 -40 11 0 30 -3 43 -6 17 -5 21 -3
17 8 -4 10 1 17 14 21 14 3 18 1 14 -9 -3 -10 0 -12 10 -8 9 3 13 13 10 25 -3
10 -6 19 -7 18 0 0 -12 -4 -26 -9z"/>
<path d="M5026 2932 c-2 -4 -1 -14 4 -21 10 -17 31 -5 23 14 -6 16 -19 20 -27
7z"/>
<path d="M4710 2926 c0 -2 7 -6 15 -10 8 -3 15 -1 15 4 0 6 -7 10 -15 10 -8 0
-15 -2 -15 -4z"/>
<path d="M4882 2898 c-16 -16 -15 -58 1 -58 20 0 37 22 37 47 0 25 -19 30 -38
11z"/>
<path d="M5430 2875 c0 -8 5 -15 10 -15 6 0 10 7 10 15 0 8 -4 15 -10 15 -5 0
-10 -7 -10 -15z"/>
<path d="M4964 2862 c3 -6 1 -12 -5 -14 -7 -2 -6 -8 4 -16 11 -10 17 -9 26 2
10 12 8 17 -10 26 -12 7 -19 8 -15 2z"/>
<path d="M5235 2840 c4 -6 1 -17 -5 -25 -10 -12 -9 -15 8 -15 15 0 20 -5 16
-15 -4 -8 -12 -15 -20 -15 -29 0 -12 -20 26 -30 23 -6 40 -17 40 -25 0 -8 15
-17 35 -21 19 -3 38 -10 41 -15 3 -5 12 -9 20 -9 8 0 12 4 9 10 -3 5 8 23 24
39 31 30 28 46 -6 35 -17 -5 -17 -5 1 10 10 8 23 13 27 10 5 -3 9 13 9 35 0
45 -10 51 -39 22 -12 -12 -23 -16 -32 -10 -8 4 -32 6 -54 4 -22 -2 -46 2 -53
8 -18 15 -55 20 -47 7z m91 -51 c10 -17 -13 -36 -27 -22 -12 12 -4 33 11 33 5
0 12 -5 16 -11z"/>
<path d="M4550 2823 c0 -5 -11 -16 -24 -23 -29 -15 -42 -40 -21 -40 8 0 15 5
15 11 0 6 10 19 23 29 12 10 19 22 15 26 -5 4 -8 3 -8 -3z"/>
<path d="M4916 2815 c-3 -8 -1 -15 4 -15 6 0 10 7 10 15 0 8 -2 15 -4 15 -2 0
-6 -7 -10 -15z"/>
<path d="M5320 2645 c7 -8 16 -15 21 -15 5 0 9 7 9 15 0 9 -9 15 -21 15 -18 0
-19 -2 -9 -15z"/>
<path d="M4170 2428 c-23 -25 -25 -34 -9 -43 11 -8 35 19 42 48 7 23 -8 21
-33 -5z"/>
<path d="M4307 2443 c-4 -3 -7 -11 -7 -17 0 -6 5 -5 12 2 6 6 9 14 7 17 -3 3
-9 2 -12 -2z"/>
<path d="M4250 2400 c0 -13 5 -20 13 -17 6 2 12 10 12 17 0 7 -6 15 -12 18 -8
2 -13 -5 -13 -18z"/>
<path d="M40 2353 c0 -15 2 -16 10 -3 6 9 10 10 10 3 0 -20 -22 -27 -32 -9 -5
9 -14 16 -21 16 -8 0 -8 -3 2 -9 9 -6 10 -11 2 -15 -24 -15 -9 -25 31 -21 27
3 45 0 50 -8 5 -8 8 -7 8 6 0 22 6 22 41 -4 16 -11 29 -17 29 -13 0 5 5 3 12
-4 7 -7 20 -12 30 -12 9 0 26 -10 38 -22 11 -12 20 -19 20 -15 0 4 8 3 18 -2
13 -7 23 -6 31 2 10 9 11 8 6 -4 -4 -10 -2 -19 3 -23 5 -3 8 4 7 15 -2 30 -71
103 -90 95 -9 -3 -13 -2 -10 4 3 6 3 10 -2 11 -4 0 -25 2 -47 4 -21 2 -41 7
-45 12 -3 4 -27 9 -53 11 -41 3 -48 1 -48 -15z"/>
<path d="M4150 2334 c0 -21 39 -24 51 -3 9 17 7 19 -21 17 -16 -1 -30 -8 -30
-14z"/>
<path d="M5415 2320 c3 -5 11 -10 16 -10 6 0 7 5 4 10 -3 6 -11 10 -16 10 -6
0 -7 -4 -4 -10z"/>
<path d="M4275 2301 c-3 -12 -10 -21 -15 -21 -5 0 -7 -7 -3 -16 4 -12 9 -8 20
16 7 18 11 35 9 37 -2 3 -7 -5 -11 -16z"/>
<path d="M4455 2299 c-4 -6 -5 -13 -2 -16 7 -7 27 6 27 18 0 12 -17 12 -25 -2z"/>
<path d="M4210 2275 c-11 -13 -10 -14 4 -9 9 3 16 10 16 15 0 13 -6 11 -20 -6z"/>
<path d="M158 2227 c3 -10 8 -14 11 -9 4 7 13 5 25 -3 10 -8 15 -18 11 -24 -3
-6 1 -11 9 -11 9 0 16 -6 17 -12 0 -7 4 -4 8 7 13 34 2 55 -30 55 -16 0 -29 4
-29 8 0 5 -6 9 -14 9 -8 0 -11 -8 -8 -20z"/>
<path d="M5354 2241 c3 -5 -1 -11 -9 -15 -19 -7 -19 -26 0 -26 8 0 15 -9 15
-19 0 -23 15 -34 47 -36 23 -1 32 18 13 30 -5 3 -17 21 -26 40 -9 19 -23 35
-31 35 -8 0 -12 -4 -9 -9z"/>
<path d="M5420 2240 c-10 -6 -7 -14 14 -34 25 -26 26 -26 26 -6 0 28 -23 51
-40 40z"/>
<path d="M10 2211 c0 -17 5 -31 10 -31 6 0 10 7 10 15 0 8 8 15 17 15 15 0 10
15 -5 15 -4 0 -13 4 -19 8 -10 6 -13 0 -13 -22z"/>
<path d="M3967 2203 c-10 -9 -9 -23 1 -23 5 0 9 7 9 15 0 17 -1 18 -10 8z"/>
<path d="M124 2191 c-9 -9 -3 -21 11 -21 8 0 15 5 15 11 0 6 7 3 16 -5 8 -9
13 -20 9 -26 -3 -6 1 -7 10 -4 9 4 14 13 11 21 -3 8 -6 18 -6 23 0 8 -58 9
-66 1z"/>
<path d="M340 2196 c0 -2 7 -9 15 -16 13 -11 14 -10 9 4 -5 14 -24 23 -24 12z"/>
<path d="M3996 2181 c-10 -11 -16 -26 -13 -33 2 -7 1 -20 -4 -29 -5 -10 -3
-23 5 -34 9 -13 11 -29 5 -54 -12 -51 -11 -68 5 -83 11 -12 12 -21 1 -51 -7
-21 -9 -40 -4 -42 4 -3 6 -12 3 -19 -5 -14 22 -30 36 -21 5 3 11 23 15 46 6
32 3 45 -12 61 -18 21 -18 21 6 8 22 -11 27 -10 43 10 44 54 29 115 -34 136
-38 13 -40 24 -9 40 19 10 27 33 10 27 -4 -1 -9 11 -13 27 -6 35 -16 37 -40
11z"/>
<path d="M80 2156 c0 -8 -6 -17 -12 -19 -8 -4 -9 -6 -2 -6 18 -1 37 26 24 34
-5 3 -10 0 -10 -9z"/>
<path d="M16 2132 c-3 -5 1 -9 9 -9 8 0 15 4 15 9 0 4 -4 8 -9 8 -6 0 -12 -4
-15 -8z"/>
<path d="M290 2131 c0 -6 4 -13 10 -16 6 -3 7 1 4 9 -7 18 -14 21 -14 7z"/>
<path d="M320 2130 c0 -5 5 -10 10 -10 6 0 10 5 10 10 0 6 -4 10 -10 10 -5 0
-10 -4 -10 -10z"/>
<path d="M367 2132 c-12 -3 -17 -12 -15 -34 3 -36 15 -45 35 -25 20 20 6 64
-20 59z"/>
<path d="M255 2119 c-4 -6 -5 -12 -2 -15 2 -3 7 2 10 11 7 17 1 20 -8 4z"/>
<path d="M5400 2100 c0 -5 7 -10 15 -10 8 0 15 5 15 10 0 6 -7 10 -15 10 -8 0
-15 -4 -15 -10z"/>
<path d="M2 2070 c0 -14 2 -19 5 -12 2 6 2 18 0 25 -3 6 -5 1 -5 -13z"/>
<path d="M5283 2073 c-7 -2 -13 -13 -13 -24 0 -16 3 -17 28 -7 37 16 38 18 22
28 -16 11 -19 11 -37 3z"/>
<path d="M385 2060 c-3 -5 -1 -18 4 -27 9 -16 10 -14 11 10 0 28 -5 34 -15 17z"/>
<path d="M5150 2053 c5 -2 10 -9 10 -14 0 -6 -9 -5 -21 1 -18 10 -20 9 -17 -7
5 -25 43 -24 43 1 0 11 -6 20 -13 22 -7 1 -8 0 -2 -3z"/>
<path d="M5315 2030 c3 -5 0 -7 -8 -4 -8 3 -18 0 -22 -6 -10 -17 16 -31 32
-18 16 13 17 38 2 38 -5 0 -7 -4 -4 -10z"/>
<path d="M5363 2022 c-17 -8 -37 -25 -44 -38 -7 -13 -20 -26 -30 -29 -20 -7
-82 -75 -119 -130 -14 -21 -37 -50 -51 -64 -35 -36 -41 -58 -24 -85 9 -13 17
-33 20 -45 4 -22 -10 -38 -20 -21 -8 13 -25 13 -25 0 0 -5 6 -10 14 -10 15 0
52 -67 48 -88 -2 -7 4 -15 12 -18 9 -3 13 -10 10 -15 -3 -5 4 -19 15 -31 12
-12 21 -19 21 -15 0 4 23 -4 50 -18 28 -14 55 -23 60 -20 18 11 10 -20 -8 -36
-11 -9 -25 -25 -33 -36 -8 -11 -28 -23 -46 -26 -26 -5 -35 -2 -47 14 -15 22
-36 18 -36 -7 0 -13 12 -18 33 -15 4 0 7 -8 7 -18 0 -12 -12 -25 -30 -33 -16
-7 -30 -19 -30 -25 0 -22 18 -14 61 24 36 32 44 36 67 27 15 -5 35 -8 45 -6
21 4 23 30 2 38 -24 10 -18 23 18 37 17 8 50 30 71 49 32 28 36 36 22 41 -9 4
-16 16 -16 27 0 13 -7 20 -20 20 -11 0 -20 7 -20 15 0 18 2 19 45 1 33 -14 35
-14 35 4 0 10 4 21 10 25 5 3 6 13 3 22 -5 12 -2 15 10 10 15 -6 17 2 17 52 0
58 -1 59 -30 63 -16 3 -30 1 -30 -4 0 -4 -4 -8 -10 -8 -5 0 -9 3 -9 8 4 23 -3
34 -17 28 -12 -4 -15 -2 -10 9 3 8 1 15 -4 15 -6 0 -10 8 -10 18 0 14 2 15 10
2 8 -13 10 -13 10 1 0 9 7 20 15 23 20 7 33 -23 14 -34 -18 -11 -12 -16 31
-24 34 -6 35 -5 38 30 1 19 -1 33 -5 31 -5 -2 -17 5 -28 16 l-20 20 22 -12
c19 -9 22 -9 17 3 -3 8 0 17 5 21 18 10 3 24 -19 18 -11 -3 -20 -1 -20 5 0 5
9 12 20 15 14 4 20 14 20 35 0 17 3 37 6 46 3 9 1 16 -5 16 -6 0 -11 -7 -11
-15 0 -18 -23 -30 -72 -39 -20 -4 -38 -13 -41 -20 -3 -7 -19 -16 -36 -18 -30
-4 -30 -4 -14 14 14 15 14 19 3 16 -27 -6 -16 25 15 41 38 21 82 26 99 12 10
-8 17 -7 26 4 7 8 19 15 26 15 21 0 18 56 -3 66 -10 4 -20 8 -23 8 -3 1 -9 4
-15 7 -5 3 -24 -1 -42 -9z m-3 -176 c0 -3 -4 -8 -10 -11 -5 -3 -10 -1 -10 4 0
6 5 11 10 11 6 0 10 -2 10 -4z m-50 -21 c0 -8 5 -15 11 -15 5 0 7 -5 4 -10 -4
-6 -12 -5 -21 4 -16 17 -19 36 -4 36 6 0 10 -7 10 -15z m76 -13 c-22 -5 -30 3
-21 18 5 8 11 7 22 -2 15 -12 14 -13 -1 -16z m-176 -12 c0 -5 -5 -10 -11 -10
-5 0 -7 5 -4 10 3 6 8 10 11 10 2 0 4 -4 4 -10z m150 -10 c0 -5 -4 -10 -10
-10 -5 0 -10 5 -10 10 0 6 5 10 10 10 6 0 10 -4 10 -10z m-160 -30 c0 -5 -5
-10 -11 -10 -5 0 -7 5 -4 10 3 6 8 10 11 10 2 0 4 -4 4 -10z m-6 -32 c-3 -4
-16 -8 -30 -8 -13 0 -24 4 -24 8 0 5 13 8 29 8 17 0 28 -3 25 -8z m116 -24 c0
-8 -4 -12 -10 -9 -5 3 -10 10 -10 16 0 5 5 9 10 9 6 0 10 -7 10 -16z m-115
-27 c13 -10 16 -22 12 -42 -6 -33 1 -57 14 -50 4 3 13 -4 19 -16 8 -15 9 -19
1 -15 -15 10 -14 0 3 -21 50 -61 58 -67 62 -55 8 19 20 14 20 -8 0 -17 -9 -23
-36 -22 -3 0 -16 3 -30 7 -19 5 -21 4 -10 -4 10 -7 11 -11 3 -11 -7 0 -17 9
-23 20 -9 16 -8 20 5 20 8 0 15 4 15 10 0 5 -10 9 -22 7 -15 -1 -22 3 -20 12
2 7 -6 20 -17 28 -11 7 -18 20 -15 28 4 8 2 15 -4 15 -5 0 -12 21 -14 48 -6
65 1 75 37 49z m100 -57 c-7 -12 -33 -8 -60 8 -17 10 -18 13 -6 21 17 11 75
-15 66 -29z m-19 -28 c6 -4 13 -14 17 -22 4 -8 14 -25 23 -37 15 -20 14 -21
-4 -16 -11 3 -26 19 -33 36 -7 18 -18 35 -23 39 -7 5 -7 8 -1 8 6 0 15 -4 21
-8z m104 -18 c0 -9 -28 -3 -46 11 -17 13 -16 14 14 4 17 -6 32 -13 32 -15z
m-5 -54 c3 -5 1 -10 -4 -10 -6 0 -11 5 -11 10 0 6 2 10 4 10 3 0 8 -4 11 -10z
m-168 -47 c-4 -3 -1 -13 6 -22 11 -14 10 -14 -5 -2 -16 12 -16 31 -1 31 4 0 3
-3 0 -7z m158 -31 c-3 -3 -11 0 -18 7 -9 10 -8 11 6 5 10 -3 15 -9 12 -12z"/>
<path d="M5170 1655 c7 -8 10 -21 7 -30 -4 -8 -2 -17 2 -20 12 -7 23 24 16 46
-4 11 -13 19 -22 19 -13 0 -13 -3 -3 -15z"/>
<path d="M5244 1633 c10 -11 37 -12 30 -2 -3 5 -12 9 -21 9 -9 0 -13 -3 -9 -7z"/>
<path d="M364 2016 c-3 -8 -2 -20 2 -27 4 -7 3 -9 -3 -6 -6 4 -13 0 -17 -8 -3
-8 -1 -15 4 -15 6 0 10 -9 10 -20 0 -34 19 -22 31 19 10 34 9 42 -5 56 -14 15
-17 15 -22 1z"/>
<path d="M5166 1994 c-24 -17 -2 -28 24 -12 11 7 20 15 20 19 0 10 -27 6 -44
-7z"/>
<path d="M4147 1958 c6 -38 1 -43 -33 -39 -13 1 -7 -98 8 -116 6 -7 5 -14 -1
-18 -6 -3 -16 5 -23 20 -14 32 -34 27 -30 -8 2 -15 -1 -27 -7 -27 -6 0 -10
-14 -8 -31 2 -27 7 -32 32 -35 16 -2 36 2 44 9 12 10 12 9 1 -10 -8 -12 -18
-19 -22 -17 -4 3 -8 -1 -8 -8 0 -7 -9 -29 -19 -49 -21 -38 -18 -88 5 -102 19
-11 18 -28 -1 -21 -19 8 -20 -19 -2 -38 7 -7 16 -20 19 -29 8 -20 53 -22 69
-3 9 11 9 21 1 37 -6 12 -11 16 -11 10 -1 -7 -8 -13 -17 -13 -13 0 -15 6 -8
28 11 39 8 73 -7 82 -16 10 -21 41 -9 59 7 12 11 12 24 2 14 -12 16 -7 16 47
0 38 -5 66 -13 73 -10 10 -11 27 -4 73 10 68 14 77 27 56 15 -24 24 -2 10 24
-7 14 -10 36 -6 53 5 21 4 24 -4 13 -9 -13 -11 -13 -20 0 -6 10 -8 4 -3 -22z
m-22 -208 c3 -6 -1 -7 -9 -4 -18 7 -21 14 -7 14 6 0 13 -4 16 -10z"/>
<path d="M5126 1903 c-6 -14 -5 -15 5 -6 7 7 10 15 7 18 -3 3 -9 -2 -12 -12z"/>
<path d="M4060 1892 c0 -15 28 -47 35 -40 8 8 -13 48 -25 48 -6 0 -10 -4 -10
-8z"/>
<path d="M4724 1892 c-6 -4 -16 -16 -23 -27 -9 -15 -11 -16 -7 -2 6 19 -9 24
-19 6 -4 -6 -13 -8 -21 -5 -8 3 -14 -1 -14 -8 0 -8 -6 -16 -12 -18 -8 -3 -3
-10 11 -17 21 -12 23 -11 18 3 -8 21 12 21 28 -1 10 -14 16 -15 27 -5 8 6 18
10 21 7 4 -3 5 -2 2 1 -2 4 4 19 15 34 18 25 18 29 4 34 -19 7 -17 7 -30 -2z"/>
<path d="M4160 1850 c-13 -24 -13 -30 0 -30 6 0 10 9 10 20 0 13 5 18 15 14 8
-4 15 -4 15 -1 0 16 -31 14 -40 -3z"/>
<path d="M3873 1798 c-2 -16 1 -18 10 -9 7 7 8 14 1 21 -6 6 -10 2 -11 -12z"/>
<path d="M4956 1801 c47 -29 94 -52 94 -47 0 6 -105 66 -116 66 -5 0 5 -9 22
-19z"/>
<path d="M130 1780 c0 -5 5 -10 11 -10 5 0 7 5 4 10 -3 6 -8 10 -11 10 -2 0
-4 -4 -4 -10z"/>
<path d="M3987 1696 c-4 -10 -5 -21 -2 -24 9 -9 17 6 13 25 -3 17 -4 17 -11
-1z"/>
<path d="M4492 1668 c5 -15 28 -23 28 -10 0 5 -7 13 -16 16 -10 4 -14 1 -12
-6z"/>
<path d="M5051 1644 c0 -11 3 -14 6 -6 3 7 2 16 -1 19 -3 4 -6 -2 -5 -13z"/>
<path d="M4930 1640 c0 -5 5 -10 10 -10 6 0 10 5 10 10 0 6 -4 10 -10 10 -5 0
-10 -4 -10 -10z"/>
<path d="M4910 1597 c0 -10 8 -17 18 -17 9 0 13 4 7 8 -5 4 -13 11 -17 16 -5
5 -8 2 -8 -7z"/>
<path d="M4305 1570 c3 -5 8 -10 11 -10 2 0 4 5 4 10 0 6 -5 10 -11 10 -5 0
-7 -4 -4 -10z"/>
<path d="M4189 1560 c0 -3 -2 -13 -4 -22 -2 -10 1 -18 5 -18 15 0 19 15 9 30
-5 8 -9 13 -10 10z"/>
<path d="M4900 1549 c0 -5 5 -7 10 -4 6 3 10 8 10 11 0 2 -4 4 -10 4 -5 0 -10
-5 -10 -11z"/>
<path d="M4326 1535 c4 -8 10 -12 15 -9 11 6 2 24 -11 24 -5 0 -7 -7 -4 -15z"/>
<path d="M4610 1539 c0 -5 5 -7 10 -4 6 3 10 8 10 11 0 2 -4 4 -10 4 -5 0 -10
-5 -10 -11z"/>
<path d="M4976 1514 c-9 -24 0 -29 18 -11 8 8 12 17 9 21 -11 10 -21 7 -27
-10z"/>
<path d="M4750 1511 c0 -7 -10 -11 -22 -10 -31 4 -180 -12 -193 -19 -5 -4 -16
-7 -23 -8 -7 -2 -21 -12 -31 -23 -10 -12 -23 -21 -29 -21 -5 0 -12 -6 -15 -14
-12 -30 -93 -126 -107 -126 -13 0 -13 -1 0 -10 12 -8 13 -11 1 -19 -10 -6 -10
-10 -1 -16 6 -4 19 0 28 8 9 9 30 19 46 23 26 6 28 5 21 -15 -4 -14 -2 -21 7
-21 7 -1 1 -8 -14 -16 -16 -8 -28 -21 -28 -29 0 -9 -10 -15 -25 -15 -29 0 -33
-21 -8 -41 20 -18 43 -71 43 -103 0 -13 7 -31 15 -40 8 -8 15 -22 15 -30 0 -9
7 -16 16 -16 8 0 12 -4 9 -10 -3 -5 2 -10 13 -10 20 0 52 -29 52 -48 0 -10 30
-24 46 -21 27 5 34 -2 28 -27 l-7 -26 33 17 c27 14 34 15 42 3 22 -33 28 -49
23 -58 -3 -6 -1 -10 4 -10 6 0 11 4 11 10 0 5 7 7 15 4 9 -4 15 0 15 10 0 9
-8 16 -17 16 -17 1 -17 1 0 11 20 12 112 5 136 -10 7 -5 11 -13 7 -19 -3 -6 0
-16 7 -24 21 -22 38 -69 32 -89 -4 -11 -2 -19 4 -19 6 0 11 -5 11 -11 0 -7 21
-32 46 -56 33 -33 43 -48 35 -57 -8 -9 -5 -12 12 -12 13 1 23 -5 23 -14 3 -28
16 -60 25 -60 5 0 9 4 9 9 0 24 74 17 90 -9 3 -5 42 -3 90 5 102 18 102 18
168 58 39 23 52 37 52 54 0 21 -2 22 -21 12 -12 -6 -24 -20 -26 -30 -9 -33
-30 -19 -24 15 1 5 -5 6 -14 3 -8 -4 -15 -2 -15 4 0 6 8 9 18 8 27 -4 62 11
62 27 0 8 -7 14 -15 14 -10 0 -7 7 10 24 22 22 24 32 24 115 0 90 0 91 -25 91
-13 0 -24 5 -24 11 0 5 4 8 9 5 5 -3 12 1 15 10 3 8 10 12 16 9 6 -4 10 20 10
66 l0 72 -46 44 c-26 24 -58 46 -73 49 -14 2 -44 10 -66 15 -37 10 -83 12
-184 6 -53 -4 -70 11 -73 61 -2 62 -3 65 -14 69 -11 4 -30 -60 -25 -81 1 -5
-7 -6 -19 -3 -11 3 -23 1 -26 -4 -3 -5 0 -9 5 -9 21 0 7 -52 -16 -63 -13 -6
-24 -14 -24 -19 -1 -4 -2 -12 -3 -17 0 -5 -5 -13 -10 -18 -5 -5 -6 -3 -2 5 4
6 3 12 -2 12 -5 0 -12 -10 -15 -22 -4 -12 -9 -19 -13 -15 -4 4 1 23 12 42 18
34 18 35 0 52 -17 17 -18 17 -12 -3 9 -29 -3 -61 -16 -42 -6 9 -8 8 -6 -7 2
-12 -3 -20 -12 -21 -8 0 -22 -3 -30 -7 -39 -14 -60 -15 -60 0 0 8 5 11 12 7 8
-5 9 -2 5 9 -3 10 -2 17 3 17 6 0 10 7 10 15 0 20 -14 19 -35 -1 -9 -9 -13
-24 -10 -35 5 -14 1 -19 -13 -19 -12 0 -24 -11 -32 -29 -8 -21 -17 -28 -28
-24 -9 4 -13 2 -9 -4 5 -7 -1 -9 -15 -6 -22 4 -22 4 -4 -11 10 -8 24 -12 30
-9 6 4 3 -3 -8 -15 -10 -12 -16 -28 -13 -37 4 -9 1 -15 -8 -15 -19 0 -30 21
-16 30 8 4 -6 12 -33 20 -46 13 -57 24 -33 34 6 2 1 4 -13 3 -16 -1 -25 3 -25
13 0 8 -8 20 -18 25 -15 9 -15 13 -4 29 12 16 11 22 -10 42 -13 13 -23 33 -23
44 0 32 55 73 102 76 l41 3 -34 -25 c-30 -22 -34 -23 -40 -7 -5 15 -6 15 -12
0 -3 -8 -1 -18 6 -21 9 -3 8 -7 -2 -14 -9 -6 -10 -12 -2 -16 7 -5 7 -12 -1
-25 -9 -15 -8 -25 6 -46 10 -15 13 -24 7 -21 -23 15 -9 -10 17 -28 l27 -20
-19 22 c-11 13 -14 22 -7 22 9 0 9 5 0 23 -11 20 -11 21 4 8 10 -7 17 -20 17
-27 0 -8 5 -14 11 -14 5 0 7 5 4 10 -6 10 7 14 32 11 7 -1 10 5 7 13 -6 15 32
43 44 32 3 -3 0 -6 -6 -6 -7 0 -11 -11 -10 -25 3 -29 14 -21 23 18 4 16 3 27
-3 27 -14 0 -22 39 -10 47 6 3 8 1 5 -4 -4 -6 0 -13 7 -16 8 -3 17 -1 19 6 3
8 11 4 21 -10 16 -22 46 -22 46 0 0 6 -3 8 -6 4 -10 -9 -47 31 -51 54 -2 11
-10 27 -18 36 -19 19 -11 33 21 33 22 0 29 -10 25 -34 -1 -5 4 -6 12 -3 8 3
19 2 26 -3 9 -5 3 -11 -18 -18 -40 -14 -40 -23 1 -15 27 5 30 4 25 -12 -6 -14
-3 -16 13 -12 11 3 20 1 20 -4 0 -5 -5 -9 -11 -9 -5 0 -7 -4 -4 -10 11 -18 25
-10 25 14 0 13 -7 29 -15 36 -8 7 -15 16 -15 20 0 7 48 23 75 24 14 1 12 39
-2 44 -7 2 -13 -3 -13 -12 0 -19 -26 -11 -35 11 -6 18 31 63 52 63 8 0 25 -11
39 -25 32 -32 35 -31 28 5 -6 26 -4 30 15 30 16 0 23 -8 27 -29 4 -19 12 -28
22 -27 27 4 24 23 -7 59 -17 19 -31 39 -31 44 0 5 -32 29 -71 54 -40 24 -82
55 -95 68 -13 13 -24 18 -24 12z m-56 -52 c-4 -8 1 -9 17 -4 19 5 21 4 9 -4
-22 -15 -40 -13 -40 4 0 8 5 15 11 15 5 0 7 -5 3 -11z m-95 -30 c1 8 7 11 17
7 9 -4 23 -1 30 5 11 9 19 8 33 -5 10 -9 25 -14 33 -11 21 8 43 -19 26 -32
-36 -27 -77 -35 -108 -22 -16 8 -30 17 -30 21 0 5 -7 8 -15 8 -9 0 -12 6 -9
15 9 23 -4 18 -17 -6 -8 -15 -8 -19 0 -15 6 4 11 0 11 -8 0 -18 -16 -21 -25
-6 -3 6 -14 10 -24 10 -10 0 -18 7 -18 15 0 9 9 15 22 15 12 0 30 6 41 14 17
13 20 13 26 -2 4 -11 7 -12 7 -3z m173 -64 c-2 -11 -8 -24 -14 -30 -8 -7 -8
-6 -3 4 6 11 4 13 -8 8 -19 -7 -30 16 -14 32 18 18 43 8 39 -14z m-255 -3 c4
-15 12 -18 44 -15 22 2 38 0 37 -4 -3 -9 5 -13 28 -13 8 0 12 4 9 10 -8 13 26
0 44 -17 11 -12 9 -13 -13 -7 -32 8 -34 -3 -3 -16 l22 -9 -23 0 c-12 -1 -25 6
-28 14 -4 10 -13 13 -25 10 -11 -4 -19 -2 -19 4 0 6 -7 11 -15 11 -8 0 -14 -5
-12 -12 4 -20 -31 -21 -36 -1 -3 13 -5 11 -6 -7 -1 -14 -14 -35 -30 -47 l-28
-22 4 23 c4 18 -1 25 -18 29 -22 6 -22 7 -6 25 9 10 17 24 17 30 0 11 27 31
43 32 5 0 11 -8 14 -18z m247 -72 c12 -24 12 -30 1 -30 -7 0 -16 -6 -19 -12
-6 -17 -46 28 -46 52 0 17 26 31 42 23 4 -2 13 -17 22 -33z m-139 -10 c-2 -11
4 -24 13 -30 11 -6 12 -10 4 -10 -7 0 -10 -4 -7 -10 7 -11 -8 -14 -19 -3 -9
10 -36 13 -36 4 0 -14 23 -29 36 -24 10 4 10 -3 1 -32 -9 -30 -12 -33 -18 -19
-3 11 -5 22 -2 27 7 11 -31 54 -44 50 -15 -5 -26 14 -13 22 5 3 10 2 10 -4 0
-13 33 -7 38 8 2 6 -1 10 -6 9 -10 -3 -12 1 -12 21 0 10 39 20 52 14 4 -2 5
-12 3 -23z m68 -27 c-7 -2 -19 -2 -25 0 -7 3 -2 5 12 5 14 0 19 -2 13 -5z
m-39 -62 c3 -5 -1 -14 -8 -20 -12 -10 -14 -9 -11 6 2 10 4 19 4 21 2 5 10 2
15 -7z m-264 -31 c0 -5 -2 -10 -4 -10 -3 0 -8 5 -11 10 -3 6 -1 10 4 10 6 0
11 -4 11 -10z m152 -32 c-7 -7 -12 -8 -12 -2 0 14 12 26 19 19 2 -3 -1 -11 -7
-17z m458 -2 c0 -8 -7 -16 -15 -20 -12 -4 -13 -2 -2 14 14 24 17 25 17 6z
m-62 -92 c-13 -13 -31 -24 -41 -24 -14 0 -11 6 14 30 38 34 60 30 27 -6z m42
23 c0 -7 -7 -22 -15 -33 -13 -17 -14 -17 -15 -2 0 9 5 20 10 23 6 4 8 11 5 16
-4 5 -1 9 4 9 6 0 11 -6 11 -13z m211 -12 c1 -21 -30 -30 -61 -18 -16 6 -30
10 -30 8 0 -2 -3 -11 -6 -20 -4 -10 -2 -15 6 -13 7 2 15 -3 17 -9 3 -7 -2 -13
-11 -13 -10 0 -16 -9 -16 -25 0 -26 -15 -34 -23 -12 -3 8 -11 4 -22 -11 l-17
-23 -24 22 c-18 17 -21 25 -12 31 10 6 10 8 1 8 -7 0 -10 7 -7 15 4 8 12 15
20 15 15 0 37 34 27 44 -3 3 -1 6 6 6 9 0 12 -9 9 -25 -6 -31 -5 -31 28 0 18
17 31 22 43 16 18 -9 44 -3 36 8 -2 5 4 8 15 7 11 0 21 -5 21 -11z m48 1 c9
-11 9 -15 -1 -20 -7 -3 -1 -4 14 -1 29 5 58 -2 58 -15 0 -5 -29 -8 -65 -8 -36
1 -68 -2 -72 -6 -10 -10 -43 -7 -43 4 0 6 8 10 19 10 28 0 68 24 63 38 -5 16
13 15 27 -2z m-530 -48 c-9 -16 -14 -19 -17 -9 -2 7 2 17 9 22 20 13 21 11 8
-13z m117 7 c-8 -8 -18 -15 -22 -15 -3 0 -1 7 6 15 7 8 17 15 22 15 5 0 3 -7
-6 -15z m589 5 c-3 -5 -11 -10 -16 -10 -6 0 -7 5 -4 10 3 6 11 10 16 10 6 0 7
-4 4 -10z m-475 -9 c0 -5 -12 -14 -27 -19 -16 -6 -37 -18 -48 -27 -11 -9 -15
-14 -9 -11 7 3 14 0 17 -8 8 -20 -3 -27 -24 -15 -13 7 -19 6 -19 -1 0 -6 -5
-8 -12 -4 -7 5 -9 2 -5 -9 8 -20 -15 -28 -70 -22 -35 3 -41 1 -36 -12 4 -9 -7
-4 -25 12 -37 33 -37 31 -16 39 12 4 15 2 10 -9 -4 -12 -2 -13 14 -2 11 6 20
15 20 19 0 5 7 8 16 8 8 0 13 -4 10 -9 -4 -5 5 -4 18 2 16 8 21 14 13 19 -7 4
-7 8 -2 8 6 0 17 -5 25 -10 13 -9 13 -11 0 -20 -13 -8 -13 -10 1 -10 18 0 37
19 54 54 6 13 24 23 45 27 19 4 38 7 43 8 4 0 7 -3 7 -8z m497 -23 c-3 -8 -6
-5 -6 6 -1 11 2 17 5 13 3 -3 4 -12 1 -19z m-127 8 c0 -2 -7 -6 -15 -10 -8 -3
-15 -1 -15 4 0 6 7 10 15 10 8 0 15 -2 15 -4z m-485 -16 c3 -5 1 -10 -4 -10
-6 0 -11 5 -11 10 0 6 2 10 4 10 3 0 8 -4 11 -10z m365 -10 c-12 -23 -22 -27
-14 -6 3 8 -2 16 -13 19 -12 3 -8 5 10 6 25 1 27 -1 17 -19z m140 2 c0 -15
-11 -21 -27 -15 -12 5 -12 7 -1 14 17 11 28 11 28 1z m120 -22 c0 -5 -7 -10
-16 -10 -8 0 -13 -4 -10 -9 3 -5 -1 -11 -9 -15 -16 -6 -19 3 -9 28 7 17 44 22
44 6z m-166 -6 c9 -3 16 -12 16 -20 0 -8 9 -14 20 -14 11 0 20 7 20 15 0 24
14 18 33 -14 21 -36 21 -42 1 -34 -9 3 -13 12 -9 22 4 10 -3 7 -19 -8 -15 -14
-26 -19 -26 -13 0 7 5 12 12 12 6 0 8 3 4 7 -4 4 -16 -3 -28 -17 -11 -14 -17
-19 -13 -12 3 6 1 12 -6 12 -7 0 -10 3 -6 6 3 4 -3 14 -15 24 -12 9 -18 22
-14 28 8 14 9 14 30 6z m-309 -14 c-3 -5 -12 -10 -18 -10 -7 0 -6 4 3 10 19
12 23 12 15 0z m85 -17 c-25 -17 -16 -37 14 -30 26 6 50 -4 54 -23 3 -11 -1
-10 -16 3 -13 12 -22 15 -27 7 -3 -5 -11 -8 -16 -5 -5 4 -9 1 -9 -6 0 -7 -3
-9 -7 -6 -3 4 -15 0 -25 -10 -17 -15 -18 -15 -18 0 0 10 6 17 13 17 8 0 14 7
14 15 0 8 -9 15 -19 15 -11 0 -17 -4 -14 -9 3 -5 -2 -15 -11 -22 -15 -12 -16
-12 -10 4 5 13 1 17 -18 17 -17 0 -25 6 -25 18 0 11 3 13 8 5 5 -7 13 -9 21
-3 8 4 21 6 29 2 11 -4 13 -1 7 9 -6 11 -5 12 6 2 18 -18 27 -16 34 6 4 13 12
18 21 14 12 -4 11 -8 -6 -20z m66 15 c4 -6 3 -8 -4 -4 -5 3 -13 0 -15 -6 -3
-8 -6 -6 -6 5 -1 19 14 23 25 5z m27 -18 c-3 -12 -8 -19 -11 -16 -5 6 5 36 12
36 2 0 2 -9 -1 -20z m97 -5 c0 -8 5 -15 12 -15 23 0 -2 -13 -32 -16 -32 -4
-38 8 -17 31 16 19 37 19 37 0z m-70 -5 c0 -5 -2 -10 -4 -10 -3 0 -8 5 -11 10
-3 6 -1 10 4 10 6 0 11 -4 11 -10z m-440 -40 c-8 -5 -17 -7 -19 -4 -3 3 1 9 9
14 8 5 17 7 19 4 3 -3 -1 -9 -9 -14z m390 -30 c0 -5 -5 -10 -11 -10 -5 0 -7 5
-4 10 3 6 8 10 11 10 2 0 4 -4 4 -10z m-33 -6 c-3 -3 -12 -4 -19 -1 -8 3 -5 6
6 6 11 1 17 -2 13 -5z m-33 -23 c4 -5 -3 -7 -14 -4 -23 6 -26 13 -6 13 8 0 17
-4 20 -9z m311 -9 c-3 -3 -11 0 -18 7 -9 10 -8 11 6 5 10 -3 15 -9 12 -12z
m36 -21 c-7 -5 -11 -14 -7 -20 4 -6 1 -9 -7 -5 -12 4 -12 10 -3 29 7 16 14 21
21 14 6 -6 5 -13 -4 -18z m-161 -22 c-7 -11 -14 -18 -17 -15 -3 3 0 12 7 21
18 21 23 19 10 -6z m45 -29 c-6 -10 25 -59 38 -60 5 0 6 4 3 9 -3 4 1 16 8 26
9 13 15 15 20 7 4 -7 2 -12 -4 -12 -6 0 -9 -4 -6 -9 9 -14 -24 -36 -56 -37
-23 -1 -28 2 -23 16 4 11 -1 22 -11 28 -15 8 -15 9 1 15 9 4 13 11 10 17 -3 5
1 10 10 10 9 0 13 -4 10 -10z m-225 -65 c6 -8 17 -13 23 -12 7 1 10 -5 8 -13
-2 -8 -4 -21 -4 -27 -1 -25 -17 -13 -17 12 0 18 -5 25 -20 25 -11 0 -20 7 -20
15 0 19 14 19 30 0z m91 -35 c21 -17 22 -19 6 -20 -10 0 -15 -5 -12 -10 4 -6
16 -8 27 -4 14 4 18 2 14 -5 -4 -6 -1 -11 8 -11 10 0 13 6 10 15 -5 11 1 15
19 15 32 0 44 -16 17 -23 -11 -3 -20 -10 -20 -16 0 -9 6 -9 23 -1 21 11 21 10
3 -4 -14 -12 -16 -16 -5 -16 12 0 12 -2 -1 -10 -13 -9 -7 -14 13 -11 4 0 7 -4
7 -10 0 -5 5 -7 12 -3 7 5 8 3 3 -6 -6 -10 -3 -12 13 -8 12 4 22 2 22 -3 0 -5
-11 -9 -25 -9 -14 0 -25 4 -25 8 0 5 -18 9 -41 10 -47 2 -73 23 -64 51 5 16 2
19 -15 16 -18 -3 -20 -2 -10 10 12 15 4 20 -22 16 -5 0 -8 4 -8 10 0 6 9 8 23
4 20 -6 21 -5 5 8 -10 8 -18 17 -18 21 0 12 18 6 41 -14z m-100 -8 c-9 -3 -8
-9 4 -22 10 -11 24 -16 33 -12 15 5 15 4 3 -11 -15 -19 -36 -23 -25 -5 5 7 2
9 -9 5 -8 -3 -20 0 -25 6 -13 17 4 61 20 51 9 -6 9 -9 -1 -12z m289 -32 c0 -4
-11 -10 -25 -12 -14 -3 -25 -1 -25 4 0 5 -5 6 -12 2 -6 -4 -9 -3 -5 2 6 11 67
14 67 4z m27 -34 c9 -7 -19 -27 -45 -32 -34 -7 -42 6 -19 31 9 11 49 11 64 1z
m-262 -6 c3 -5 1 -10 -4 -10 -6 0 -11 5 -11 10 0 6 2 10 4 10 3 0 8 -4 11 -10z"/>
<path d="M4495 1360 c-3 -5 -1 -10 4 -10 6 0 11 5 11 10 0 6 -2 10 -4 10 -3 0
-8 -4 -11 -10z"/>
<path d="M5197 536 c-4 -10 0 -12 14 -9 15 4 18 2 13 -13 -5 -15 -4 -16 4 -4
8 10 8 18 0 27 -14 17 -25 16 -31 -1z"/>
<path d="M5055 1480 c3 -6 4 -10 1 -10 -2 0 -13 -3 -23 -6 -15 -5 -15 -4 -3 5
8 6 11 11 5 11 -19 0 -41 -21 -28 -26 7 -3 10 -11 7 -19 -3 -7 3 -18 15 -24
15 -9 23 -7 36 5 13 13 14 19 4 25 -10 6 -10 11 -1 22 10 12 9 16 -3 21 -9 3
-13 2 -10 -4z"/>
<path d="M5436 1437 c3 -10 9 -15 12 -12 3 3 0 11 -7 18 -10 9 -11 8 -5 -6z"/>
<path d="M4160 1396 c0 -9 5 -16 10 -16 6 0 10 4 10 9 0 6 -4 13 -10 16 -5 3
-10 -1 -10 -9z"/>
<path d="M4124 1377 c-3 -9 1 -26 10 -39 16 -23 16 -22 10 12 -8 43 -12 47
-20 27z"/>
<path d="M4020 1365 c0 -8 4 -15 10 -15 5 0 7 7 4 15 -4 8 -8 15 -10 15 -2 0
-4 -7 -4 -15z"/>
<path d="M3990 1350 c0 -5 5 -10 11 -10 5 0 7 5 4 10 -3 6 -8 10 -11 10 -2 0
-4 -4 -4 -10z"/>
<path d="M4150 1305 c0 -4 9 -18 20 -32 11 -14 20 -22 20 -18 0 4 -9 18 -20
32 -11 14 -20 22 -20 18z"/>
<path d="M4820 1280 c0 -5 5 -10 11 -10 5 0 7 5 4 10 -3 6 -8 10 -11 10 -2 0
-4 -4 -4 -10z"/>
<path d="M4852 1278 c6 -18 28 -21 28 -4 0 9 -7 16 -16 16 -9 0 -14 -5 -12
-12z"/>
<path d="M4060 1266 c-10 -13 -10 -19 0 -31 7 -8 16 -15 20 -15 15 0 20 34 7
47 -12 12 -16 12 -27 -1z"/>
<path d="M4867 1215 c-4 -8 -13 -15 -22 -15 -12 0 -13 -4 -6 -19 6 -10 7 -22
3 -26 -4 -4 3 -5 16 -2 15 3 22 1 22 -9 0 -29 20 -12 31 26 9 30 9 44 1 52 -8
8 -9 5 -5 -10 4 -17 -1 -24 -18 -31 -28 -10 -37 2 -19 25 7 8 11 17 8 20 -3 3
-8 -2 -11 -11z"/>
<path d="M4216 1193 c-7 -8 13 -43 24 -43 6 0 10 7 10 15 0 8 5 15 10 15 6 0
10 3 10 8 0 8 -46 12 -54 5z"/>
<path d="M4305 1170 c3 -5 8 -10 11 -10 2 0 4 5 4 10 0 6 -5 10 -11 10 -5 0
-7 -4 -4 -10z"/>
<path d="M4135 1133 c11 -44 39 -56 50 -23 8 25 -10 50 -37 50 -17 0 -19 -4
-13 -27z"/>
<path d="M4265 1059 c12 -84 37 -152 91 -246 30 -53 53 -101 50 -108 -3 -8 1
-16 9 -18 7 -3 21 -26 30 -51 9 -24 24 -47 32 -51 13 -4 15 2 9 44 -4 27 -3
51 1 53 5 3 2 3 -4 2 -7 -2 -17 5 -23 16 -14 26 9 39 26 15 8 -11 19 -15 30
-11 13 5 15 9 6 18 -19 19 -14 48 6 48 11 0 27 10 38 21 19 22 19 22 -3 10
-12 -6 -26 -11 -30 -10 -31 5 -55 -2 -49 -16 4 -12 -2 -14 -27 -11 -25 3 -34
9 -40 33 -5 16 -18 33 -30 39 -26 11 -66 89 -67 129 0 17 -7 41 -16 53 -8 12
-12 27 -9 32 3 6 1 10 -5 10 -6 0 -10 7 -8 16 2 10 -3 19 -10 22 -10 3 -12 -6
-7 -39z"/>
<path d="M4677 1093 c-11 -10 -8 -20 6 -26 8 -3 14 3 14 14 2 19 -8 25 -20 12z"/>
<path d="M4770 1090 c0 -5 5 -10 10 -10 6 0 10 5 10 10 0 6 -4 10 -10 10 -5 0
-10 -4 -10 -10z"/>
<path d="M4571 998 c-11 -32 -7 -55 5 -24 3 9 14 16 23 17 10 0 11 2 3 6 -6 2
-10 9 -7 13 3 5 1 11 -4 14 -5 3 -14 -8 -20 -26z"/>
<path d="M4387 934 c-11 -11 -8 -36 3 -29 6 3 10 1 10 -5 0 -6 4 -9 9 -6 12 8
8 39 -5 43 -6 2 -13 0 -17 -3z"/>
<path d="M4290 854 c0 -8 5 -12 10 -9 6 3 10 10 10 16 0 5 -4 9 -10 9 -5 0
-10 -7 -10 -16z"/>
<path d="M4586 762 c-4 -7 -1 -12 8 -12 9 0 16 -4 16 -10 0 -5 -4 -10 -10 -10
-15 0 -12 -40 5 -56 15 -15 55 -11 55 5 0 16 -14 20 -27 9 -12 -9 -13 -7 -8
13 7 29 -26 81 -39 61z"/>
<path d="M4303 744 c-3 -8 -1 -20 6 -27 13 -13 16 -10 25 21 6 16 3 22 -9 22
-8 0 -18 -7 -22 -16z"/>
<path d="M4750 700 c0 -5 5 -10 11 -10 5 0 7 5 4 10 -3 6 -8 10 -11 10 -2 0
-4 -4 -4 -10z"/>
<path d="M4500 611 c0 -18 18 -21 30 -6 10 13 9 15 -9 15 -11 0 -21 -4 -21 -9z"/>
<path d="M4615 600 c-3 -5 -1 -10 4 -10 6 0 11 5 11 10 0 6 -2 10 -4 10 -3 0
-8 -4 -11 -10z"/>
<path d="M4530 555 c0 -16 16 -20 24 -6 3 5 -1 11 -9 15 -9 3 -15 0 -15 -9z"/>
<path d="M4665 553 c6 -4 10 -15 10 -23 0 -8 -4 -18 -10 -22 -7 -5 -7 -8 0 -8
6 -1 27 -3 49 -4 27 -2 33 0 22 6 -9 5 -16 18 -16 28 0 11 -6 20 -14 20 -8 0
-23 3 -33 6 -10 3 -14 2 -8 -3z"/>
<path d="M4797 511 c2 -10 -3 -26 -12 -35 -14 -14 -20 -14 -33 -4 -12 10 -14
10 -8 1 4 -8 2 -13 -8 -13 -8 0 -16 5 -18 11 -2 6 -12 10 -21 8 -15 -3 -16 -7
-5 -22 9 -13 30 -19 71 -21 41 -2 61 -8 71 -21 8 -11 21 -16 33 -13 11 3 27
-1 37 -8 14 -10 16 -16 6 -34 -10 -18 -8 -24 11 -41 24 -21 29 -22 45 -11 36
23 14 115 -31 132 -14 5 -25 16 -25 24 0 21 -41 57 -54 48 -16 -10 -37 -11
-31 -2 3 4 -2 11 -11 14 -22 8 -23 8 -17 -13z m83 -31 c0 -5 -4 -10 -10 -10
-5 0 -10 5 -10 10 0 6 5 10 10 10 6 0 10 -4 10 -10z"/>
<path d="M4940 500 c0 -5 4 -10 9 -10 5 0 8 -6 7 -12 0 -7 4 -14 9 -15 6 0 8
4 6 10 -2 7 -4 18 -4 25 0 14 -27 17 -27 2z"/>
<path d="M4455 460 c3 -5 11 -10 16 -10 6 0 7 5 4 10 -3 6 -11 10 -16 10 -6 0
-7 -4 -4 -10z"/>
<path d="M4557 437 c15 -12 35 -21 44 -19 9 1 22 -4 29 -13 14 -17 30 -11 30
11 0 28 -26 42 -79 42 l-52 1 28 -22z"/>
<path d="M4990 431 c0 -11 5 -23 10 -26 6 -4 9 -12 8 -20 -4 -19 49 -65 67
-59 18 7 21 -26 3 -44 -16 -16 -28 -15 -28 2 0 7 -6 19 -14 25 -11 9 -15 8
-20 -5 -7 -19 -8 -17 21 -33 24 -12 74 -15 72 -3 -1 4 0 10 1 15 1 4 3 12 4
17 0 6 4 10 9 10 4 0 21 0 38 0 17 0 28 -4 24 -10 -3 -5 3 -10 14 -10 31 0 15
28 -20 35 -17 4 -29 13 -30 23 0 14 -2 14 -6 2 -7 -19 -24 -30 -35 -24 -14 9
-9 24 7 24 9 0 18 6 21 13 2 7 13 13 24 14 11 1 17 -3 14 -11 -7 -18 22 -41
31 -26 10 17 -33 59 -54 53 -10 -2 -24 2 -32 9 -8 8 -29 18 -48 21 -27 6 -32
4 -27 -8 3 -9 0 -15 -10 -15 -8 0 -12 5 -9 10 7 12 -12 40 -26 40 -5 0 -9 -9
-9 -19z"/>
<path d="M4885 380 c3 -5 8 -10 11 -10 2 0 4 5 4 10 0 6 -5 10 -11 10 -5 0 -7
-4 -4 -10z"/>
<path d="M4710 356 c0 -9 7 -16 16 -16 17 0 14 22 -4 28 -7 2 -12 -3 -12 -12z"/>
<path d="M5323 343 c4 -6 3 -14 -2 -18 -6 -3 1 -21 14 -42 22 -32 35 -66 19
-50 -4 3 -13 0 -21 -8 -21 -21 -40 -18 -46 6 -4 15 -11 20 -21 16 -11 -4 -16
-1 -16 11 0 15 -2 15 -10 2 -8 -12 -11 -13 -19 -1 -6 9 -11 10 -15 2 -4 -6
-15 -7 -29 -2 -12 4 -28 6 -35 4 -20 -7 17 -32 48 -33 14 0 38 -7 54 -15 15
-8 39 -15 53 -15 14 0 22 -4 18 -10 -11 -18 16 -40 47 -40 31 0 68 16 80 34 5
7 8 6 8 -3 0 -8 2 -12 6 -9 3 3 -4 21 -15 39 -11 18 -18 36 -15 41 3 4 -2 8
-10 8 -12 0 -14 7 -10 28 6 30 -5 45 -45 57 -18 6 -22 4 -15 -6 6 -10 3 -10
-11 1 -10 8 -16 10 -12 3z"/>
<path d="M5445 310 c3 -5 8 -10 11 -10 2 0 4 5 4 10 0 6 -5 10 -11 10 -5 0 -7
-4 -4 -10z"/>
<path d="M5240 171 c0 -12 29 -23 41 -15 5 3 7 10 4 15 -8 12 -45 12 -45 0z"/>
</g>
</svg>
